<svg width="100" height="100" xmlns="http://www.w3.org/2000/svg" xmlns:svg="http://www.w3.org/2000/svg">
 <g>
  <title>Layer 1</title>
  <g id="svg_1">
   <rect id="svg_2" height="5.571" width="1.5" y="4.625" x="41.129001"/>
   <rect id="svg_3" height="5.571" width="1.5" y="19.248" x="41.129001"/>
   <rect id="svg_4" height="1.5" width="5.572" y="13.972" x="46.404001"/>
   <rect id="svg_5" height="1.5" width="5.569" y="13.972" x="31.781001"/>
   <rect id="svg_6" height="1.5" width="5.57" transform="matrix(0.7071,0.7071,-0.7071,0.7071,23.8064,-38.3703) " y="24.013426" x="40.223574"/>
   <rect id="svg_7" height="1.5" width="5.57" transform="matrix(0.7069,0.7073,-0.7073,0.7069,34.1626,-42.6618) " y="34.358728" x="50.568877"/>
   <rect id="svg_8" height="5.569" width="1.5" transform="matrix(0.7071,0.7071,-0.7071,0.7071,26.835,-45.682) " y="21.978426" x="52.599574"/>
   <rect id="svg_9" height="5.57" width="1.5" transform="matrix(-0.7071,-0.7071,0.7071,-0.7071,85.3216,75.1275) " y="1.896574" x="72.681426"/>
   <path id="svg_10" d="m23.782001,95.375c10.105,0 18.373,-8.021 18.768,-18.032l0.079,0l0,-40.914c0,-6.416 -5.219,-11.635 -11.634,-11.635l-14.36,0c-6.415,0 -11.635,5.219 -11.635,11.635l0,40.165c0,10.356 8.425,18.781 18.782,18.781zm-17.282,-58.946c0,-5.588 4.547,-10.135 10.135,-10.135l11.045,0l-4.362,4.363l1.061,1.061l5.423,-5.423l1.194,0c0.908,0 1.784,0.131 2.622,0.356l-10.334,10.333l1.061,1.061l10.834,-10.836c0.926,0.422 1.775,0.979 2.527,1.647l-14.389,14.39l1.061,1.061l14.38,-14.381c0.649,0.774 1.187,1.645 1.584,2.589l-17.058,17.058l1.061,1.061l16.51,-16.51c0.174,0.742 0.275,1.511 0.275,2.305l0,1.594l-11.656,11.655l1.061,1.061l10.594,-10.595l0,4.174l-5.359,5.36l1.061,1.061l4.299,-4.3l0,29.405l-0.064,0l0,0.75c0,9.529 -7.753,17.282 -17.282,17.282s-17.282,-7.752 -17.282,-17.282l0,-40.165l-0.002,0z"/>
  </g>
  <line id="svg_11" y2="10" x2="0" y1="2" x1="0" stroke-linecap="null" stroke-linejoin="null" stroke-dasharray="null" stroke="#000000" fill="none"/>
  <line id="svg_12" y2="0" x2="10" y1="0" x1="2" stroke-linecap="null" stroke-linejoin="null" stroke-dasharray="null" stroke="#000000" fill="none"/>
 </g>
</svg>
