<svg width="100" height="100" xmlns="http://www.w3.org/2000/svg" xmlns:svg="http://www.w3.org/2000/svg">
 <g>
  <title>Layer 1</title>
  <g id="svg_1">
   <rect id="svg_2" height="5.571" width="1.5" y="5" x="39.538"/>
   <rect id="svg_3" height="5.571" width="1.5" y="19.623" x="39.538"/>
   <rect id="svg_4" height="1.5" width="5.572" y="14.347" x="30.191"/>
   <rect id="svg_5" height="1.5" width="5.57" y="14.347" x="44.816"/>
   <rect id="svg_6" height="1.5" width="5.57" transform="matrix(0.7071,-0.7071,0.7071,0.7071,9.1721,41.247) " y="2.761836" x="45.020501"/>
   <rect id="svg_7" height="1.5" width="5.571" transform="matrix(0.7071,-0.7071,0.7071,0.7071,-1.168,36.9644) " y="13.101836" x="34.679501"/>
   <rect id="svg_8" height="5.571" width="1.5" transform="matrix(0.7071,-0.7071,0.7071,0.7071,6.1439,33.9351) " y="0.725836" x="36.714501"/>
   <rect id="svg_9" height="5.57" width="1.5" transform="matrix(-0.7071,0.7071,-0.7071,-0.7071,106.8918,-4.4896) " y="23.148164" x="60.196499"/>
   <rect id="svg_10" height="5.571" width="1.5" y="5" x="14.348"/>
   <rect id="svg_11" height="5.571" width="1.5" y="19.623" x="14.348"/>
   <rect id="svg_12" height="1.5" width="5.572" y="14.347" x="5"/>
   <rect id="svg_13" height="1.5" width="5.57" y="14.347" x="19.625"/>
   <rect id="svg_14" height="1.5" width="5.571" transform="matrix(0.7072,-0.707,0.707,0.7072,1.7926,23.4297) " y="2.761765" x="19.827647"/>
   <rect id="svg_15" height="1.5" width="5.571" transform="matrix(0.707,-0.7072,0.7072,0.707,-8.5464,19.1567) " y="13.101907" x="9.491355"/>
   <rect id="svg_16" height="5.57" width="1.5" transform="matrix(0.7071,-0.7071,0.7071,0.7071,-1.2344,16.1228) " y="0.726836" x="11.524501"/>
   <rect id="svg_17" height="5.571" width="1.5" transform="matrix(-0.7071,0.7071,-0.7071,-0.7071,63.8872,13.3231) " y="23.148164" x="35.004499"/>
   <path id="svg_18" d="m77.166,76.969l0,-40.165c0,-6.416 -5.219,-11.635 -11.634,-11.635l-14.359,0c-6.415,0 -11.635,5.219 -11.635,11.635l0,40.914l0.078,0c0.395,10.011 8.663,18.032 18.769,18.032c10.356,0 18.781,-8.425 18.781,-18.781zm-1.503,-40.165l0,40.165c0,9.53 -7.752,17.282 -17.281,17.282c-9.53,0 -17.283,-7.753 -17.283,-17.282l0,-0.75l-0.063,0l0,-29.406l4.3,4.301l1.061,-1.061l-5.36,-5.361l0,-4.173l10.595,10.595l1.061,-1.061l-11.655,-11.655l0,-1.594c0,-0.794 0.101,-1.563 0.275,-2.305l16.51,16.51l1.061,-1.061l-17.058,-17.059c0.397,-0.944 0.934,-1.815 1.584,-2.589l14.379,14.381l1.061,-1.061l-14.389,-14.39c0.752,-0.667 1.601,-1.224 2.527,-1.646l10.835,10.836l1.061,-1.061l-10.335,-10.333c0.839,-0.225 1.715,-0.356 2.623,-0.356l1.193,0l5.423,5.423l1.061,-1.061l-4.362,-4.363l11.045,0c5.588,0 10.134,4.547 10.134,10.135l-0.003,0z"/>
  </g>
  <line id="svg_19" y2="10" x2="0" y1="2" x1="0" stroke-linecap="null" stroke-linejoin="null" stroke-dasharray="null" stroke="#000000" fill="none"/>
  <line id="svg_20" y2="0" x2="10" y1="0" x1="2" stroke-linecap="null" stroke-linejoin="null" stroke-dasharray="null" stroke="#000000" fill="none"/>
 </g>
</svg>
