<svg width="100" height="100" xmlns="http://www.w3.org/2000/svg" xmlns:svg="http://www.w3.org/2000/svg">
 <g>
  <title>Layer 1</title>
  <g id="svg_1">
   <rect id="svg_2" height="5.571" width="1.5" y="5" x="14.347"/>
   <rect id="svg_3" height="5.571" width="1.5" y="19.623" x="14.347"/>
   <rect id="svg_4" height="1.5" width="5.572" y="14.347" x="5"/>
   <rect id="svg_5" height="1.5" width="5.569" y="14.347" x="19.626"/>
   <rect id="svg_6" height="1.5" width="5.57" transform="matrix(0.7071,-0.7071,0.7071,0.7071,5.4834,32.3407) " y="-6.145259" x="23.518405"/>
   <rect id="svg_7" height="1.5" width="5.57" transform="matrix(0.7069,-0.7073,0.7073,0.7069,-4.8556,28.0698) " y="4.193364" x="13.184634"/>
   <rect id="svg_8" height="5.569" width="1.5" transform="matrix(0.7071,-0.7071,0.7071,0.7071,2.4546,25.0285) " y="-8.179259" x="15.212405"/>
   <rect id="svg_9" height="5.57" width="1.5" transform="matrix(-0.7071,0.7071,-0.7071,-0.7071,85.389,4.4183) " y="32.055259" x="56.505595"/>
   <path id="svg_10" d="m51.976,76.969l0,-40.165c0,-6.416 -5.22,-11.635 -11.635,-11.635l-14.36,0c-6.415,0 -11.634,5.219 -11.634,11.635l0,40.914l0.079,0c0.395,10.011 8.663,18.032 18.768,18.032c10.357,0 18.782,-8.425 18.782,-18.781zm-1.502,-40.165l0,40.165c0,9.53 -7.753,17.282 -17.282,17.282s-17.282,-7.753 -17.282,-17.282l0,-0.75l-0.064,0l0,-29.405l4.299,4.3l1.061,-1.061l-5.359,-5.36l0,-4.174l10.594,10.595l1.061,-1.061l-11.656,-11.655l0,-1.594c0,-0.794 0.101,-1.563 0.275,-2.305l16.51,16.51l1.061,-1.061l-17.058,-17.058c0.397,-0.944 0.935,-1.815 1.584,-2.589l14.38,14.381l1.061,-1.061l-14.389,-14.39c0.752,-0.668 1.601,-1.225 2.527,-1.647l10.834,10.836l1.061,-1.061l-10.334,-10.333c0.838,-0.225 1.714,-0.356 2.622,-0.356l1.194,0l5.423,5.423l1.061,-1.061l-4.362,-4.363l11.045,0c5.588,0 10.135,4.547 10.135,10.135l-0.002,0z"/>
  </g>
  <line stroke="#000000" id="svg_12" y2="10" x2="0" y1="2" x1="0" stroke-linecap="null" stroke-linejoin="null" stroke-dasharray="null" fill="none"/>
  <line id="svg_13" stroke="#000000" y2="0" x2="10" y1="0" x1="2" stroke-linecap="null" stroke-linejoin="null" stroke-dasharray="null" fill="none"/>
 </g>
</svg>
